<?xml version="1.0" standalone="no"?>
<!DOCTYPE svg PUBLIC "-//W3C//DTD SVG 20010904//EN"
 "http://www.w3.org/TR/2001/REC-SVG-20010904/DTD/svg10.dtd">
<svg version="1.0" xmlns="http://www.w3.org/2000/svg"
 width="1024.000000pt" height="1024.000000pt" viewBox="0 0 1024.000000 1024.000000"
 preserveAspectRatio="xMidYMid meet">

<g transform="translate(0.000000,1024.000000) scale(0.100000,-0.100000)"
fill="#000000" stroke="none">
<path d="M4957 9409 c-58 -10 -113 -32 -552 -222 -121 -52 -319 -138 -440
-190 -121 -52 -339 -147 -485 -210 -146 -63 -382 -165 -525 -227 -378 -163
-422 -185 -446 -223 -23 -38 -18 -81 14 -114 12 -12 71 -45 132 -73 60 -27
111 -54 113 -60 2 -6 1 -31 -3 -55 -5 -39 -11 -47 -47 -67 -48 -27 -68 -62
-68 -118 0 -53 22 -96 60 -115 17 -9 30 -19 30 -23 0 -4 -14 -191 -30 -417
-87 -1197 -86 -1098 -11 -1325 57 -176 71 -201 94 -181 22 18 115 302 127 389
7 49 7 111 0 190 -5 64 -28 376 -50 692 -22 316 -42 594 -44 617 -5 38 -3 43
21 55 95 47 92 181 -5 236 -33 18 -42 29 -42 50 0 15 -3 37 -6 50 -6 22 -4 21
77 -13 46 -20 95 -41 109 -46 14 -6 106 -46 205 -89 l180 -79 0 -398 c0 -420
-7 -510 -56 -758 -11 -55 -23 -152 -26 -216 -6 -116 -6 -116 -34 -126 -40 -16
-85 -93 -105 -180 -21 -95 -15 -352 10 -458 57 -237 156 -417 254 -460 34 -15
41 -25 71 -103 78 -201 236 -487 374 -677 160 -220 372 -428 558 -548 161
-103 285 -156 461 -197 86 -20 116 -22 255 -17 176 5 268 25 422 92 308 131
615 410 858 775 120 182 235 401 308 588 17 44 37 77 49 84 37 19 97 82 132
141 106 172 170 484 145 698 -15 120 -37 184 -82 231 l-36 38 -6 243 c-6 241
-21 368 -62 527 -12 48 -15 120 -13 390 l3 331 185 80 c102 45 203 89 225 99
22 9 91 39 152 65 210 89 276 126 298 167 18 35 19 38 3 72 -10 21 -34 45 -60
60 -37 21 -293 134 -873 383 -82 35 -217 94 -300 130 -82 35 -262 114 -400
173 -137 60 -353 153 -480 208 -126 55 -255 108 -285 117 -67 20 -271 28 -353
14z m-468 -2789 c202 -88 397 -167 432 -177 87 -23 281 -23 368 0 35 10 234
91 443 182 402 174 433 184 497 151 90 -47 237 -323 311 -584 l24 -83 44 7
c36 5 47 3 67 -16 45 -42 60 -102 60 -240 0 -100 -5 -142 -24 -210 -31 -115
-76 -205 -124 -253 -36 -36 -43 -39 -81 -35 l-42 5 -33 -91 c-118 -323 -319
-645 -541 -867 -172 -171 -373 -296 -560 -349 -96 -27 -262 -36 -368 -21 -440
64 -883 489 -1150 1103 -27 62 -57 138 -67 169 l-18 56 -44 -5 c-41 -4 -46 -2
-86 39 -52 55 -92 136 -119 242 -18 72 -20 102 -15 241 5 156 5 158 35 195 31
38 67 50 101 32 18 -10 21 -7 27 26 31 184 109 357 214 476 70 80 234 185 268
172 8 -3 179 -77 381 -165z"/>
<path d="M3665 3640 c-27 -5 -138 -13 -245 -20 -611 -34 -888 -118 -1155 -349
-241 -209 -465 -591 -608 -1037 -51 -160 -60 -218 -55 -341 7 -140 39 -243
106 -339 202 -287 755 -495 1657 -624 772 -110 1888 -140 2780 -74 1289 94
2129 336 2379 687 56 79 79 132 100 231 32 156 20 274 -52 491 -139 418 -318
731 -549 958 -275 271 -575 366 -1270 402 -61 3 -137 10 -170 15 -32 6 -63 10
-69 10 -6 0 -23 -23 -39 -51 -92 -169 -360 -322 -705 -403 -399 -93 -903 -93
-1295 -1 -354 83 -625 238 -716 409 -13 25 -28 45 -34 45 -5 -1 -32 -5 -60 -9z"/>
</g>
</svg>
